<svg width="18" height="17" viewBox="0 0 18 17" fill="#EE6151" xmlns="http://www.w3.org/2000/svg">
<path d="M14.6332 11.0193C14.5613 10.8399 14.4867 10.6628 14.4096 10.4878C14.5257 10.4293 14.6395 10.3683 14.7534 10.3072C16.5747 9.30873 17.6429 8.04124 17.4536 6.98641C17.2681 5.9729 15.9161 5.21055 13.9782 4.92346C13.7873 4.89401 13.5935 4.87157 13.4041 4.85431C13.4123 4.72707 13.4184 4.59724 13.4219 4.46963C13.4724 2.40086 12.9119 0.846394 11.8979 0.491794C10.9262 0.150171 9.58117 0.944733 8.35559 2.47496C8.23407 2.6271 8.11736 2.77962 8.00244 2.93951C7.81486 2.81381 7.62427 2.6951 7.43988 2.58895C5.78416 1.61699 4.18212 1.27178 3.39633 1.93887C2.58453 2.62806 2.66739 4.3743 3.39356 6.2289C3.45349 6.37838 3.51343 6.52786 3.58076 6.6755C3.39166 6.76926 3.20956 6.86597 3.02445 6.96969C1.34946 7.92417 0.384944 9.1081 0.568235 10.119C0.75611 11.1617 2.17084 11.982 4.14982 12.2699C4.30746 12.2919 4.46769 12.3118 4.63312 12.3271C4.61801 12.5359 4.61249 12.7454 4.60957 12.9527C4.59331 14.8721 5.13587 16.2949 6.10274 16.6361C7.10242 16.9896 8.52666 16.1723 9.77467 14.6052C9.86936 14.4847 9.96446 14.3595 10.06 14.2294C10.1537 14.2923 10.2479 14.3503 10.3421 14.4084C12.108 15.4783 13.8313 15.8764 14.6561 15.1762C15.4445 14.5069 15.343 12.8388 14.6332 11.0193V11.0193ZM13.8667 5.64585C15.5279 5.89193 16.6214 6.50854 16.7321 7.11804C16.8514 7.76924 15.9744 8.80319 14.4013 9.66673C14.2974 9.72374 14.1961 9.77854 14.0905 9.82816C13.7324 9.14375 13.3312 8.48251 12.8863 7.85403C13.0843 7.10707 13.2352 6.34675 13.331 5.57971C13.5131 5.59881 13.6877 5.61974 13.8667 5.64585V5.64585ZM5.72294 7.40812C5.60873 7.73215 5.49672 8.05877 5.39651 8.38873C5.09767 7.94785 4.82185 7.49189 4.57124 7.02342C5.04268 6.8191 5.55133 6.63217 6.08757 6.46188C5.95976 6.77519 5.83675 7.08888 5.72294 7.40812V7.40812ZM8.18672 3.96741C8.58666 4.26902 8.99079 4.60716 9.39249 4.97406C9.05998 5.02037 8.72445 5.07369 8.39293 5.13697C8.06401 5.19804 7.73208 5.26612 7.40414 5.34416C7.65328 4.85215 7.91661 4.39262 8.18672 3.96741ZM6.99656 6.19776C7.50077 6.06356 8.01037 5.95151 8.52357 5.85421C9.03676 5.75692 9.55274 5.68397 10.0723 5.62578C10.4308 5.9893 10.7829 6.37161 11.126 6.77494C11.469 7.17826 11.7921 7.58967 12.0912 7.9992C11.9502 8.49728 11.7927 8.99165 11.6186 9.48231C11.4445 9.97296 11.2516 10.4573 11.0446 10.9357C10.5382 11.0674 10.026 11.1816 9.50804 11.2785C8.99484 11.3758 8.48106 11.4514 7.96108 11.5143C7.60479 11.1534 7.25091 10.7637 6.90564 10.3578C6.56037 9.9519 6.2391 9.54787 5.93924 9.14794C6.07836 8.64247 6.23628 8.14331 6.413 7.65044C6.58972 7.15758 6.78484 6.67581 6.99656 6.19776ZM9.63607 11.998C9.9772 11.9355 10.3143 11.863 10.6519 11.7857C10.4153 12.2714 10.156 12.7409 9.87087 13.2012C9.43893 12.8777 9.02341 12.5315 8.62911 12.1627C8.96643 12.1168 9.30235 12.0587 9.63607 11.998ZM11.9432 10.6805C12.0688 10.3646 12.1923 10.0461 12.3061 9.72684C12.4195 9.41239 12.5259 9.09499 12.6253 8.77462C12.9273 9.23505 13.1957 9.69285 13.4265 10.138C12.9403 10.346 12.4469 10.5245 11.9432 10.6805V10.6805ZM12.6031 5.52986C12.5374 6.05315 12.4428 6.57417 12.3225 7.08594C11.9105 6.55414 11.4729 6.03965 11.014 5.54761C11.5652 5.51603 12.0995 5.51209 12.6031 5.52986ZM11.647 1.17671C12.2715 1.39458 12.7275 2.66819 12.6863 4.45297C12.684 4.5662 12.6766 4.68385 12.6713 4.80408C11.8959 4.77223 11.1183 4.79571 10.3462 4.86788C9.79716 4.32775 9.21348 3.82593 8.59777 3.3602C8.70188 3.21394 8.81299 3.07064 8.9241 2.92733C9.97671 1.61518 11.0628 0.969224 11.647 1.17671V1.17671ZM4.24952 6.366C4.18837 6.23091 4.13203 6.09619 4.07829 5.95926C3.7842 5.26057 3.52781 4.40075 3.50462 3.64126C3.46464 3.22551 3.5961 2.81114 3.86915 2.49474C4.34531 2.09051 5.6491 2.39061 7.06563 3.21834C7.24302 3.32153 7.41741 3.43172 7.58919 3.54413C7.17411 4.19927 6.80023 4.88178 6.47316 5.58243C5.71823 5.79589 4.97368 6.05843 4.24952 6.366V6.366ZM4.26386 11.5453C3.5081 11.4523 2.77583 11.2235 2.10504 10.8669C1.72303 10.697 1.42853 10.3771 1.29491 9.98298C1.18462 9.36868 1.95796 8.41829 3.3918 7.60174C3.5617 7.50648 3.7338 7.4138 3.90769 7.32851C4.27541 8.01367 4.68656 8.67087 5.14594 9.30048C4.94967 10.0548 4.8028 10.8251 4.70655 11.5969C4.55552 11.5827 4.40708 11.5662 4.26386 11.5453ZM5.43492 11.642C5.49682 11.1353 5.58994 10.6021 5.71308 10.0568C5.91379 10.3138 6.1263 10.5742 6.34622 10.8327C6.57273 11.099 6.80005 11.3557 7.03298 11.6032C6.50021 11.6459 5.96766 11.6572 5.43492 11.642V11.642ZM7.52866 15.6838C7.19143 15.93 6.76286 16.0267 6.35139 15.9486C5.76235 15.7408 5.32906 14.5992 5.34117 12.9594C5.34247 12.7713 5.35158 12.5765 5.3611 12.377C6.1373 12.3992 6.91313 12.3684 7.68378 12.2841C8.23683 12.8341 8.82931 13.3463 9.45682 13.8154C9.37213 13.9318 9.28525 14.0456 9.19876 14.1547C8.7445 14.7585 8.17666 15.2762 7.52866 15.6838V15.6838ZM10.726 13.7798C10.641 13.7273 10.556 13.6747 10.4714 13.6174C10.8847 12.9549 11.2498 12.2621 11.5707 11.5489C12.3126 11.3464 13.0371 11.092 13.7461 10.7929C13.8214 10.9605 13.8897 11.1251 13.9536 11.2845C14.5622 12.8427 14.662 14.2139 14.1885 14.6159C13.6785 15.0489 12.2527 14.7054 10.726 13.7798ZM7.82412 9.57806C8.38051 10.2322 9.36473 10.3094 10.023 9.75049C10.6813 9.19164 10.7639 8.2088 10.2075 7.55469C9.6511 6.90058 8.66687 6.8234 8.00858 7.38225C7.35029 7.94111 7.26773 8.92395 7.82412 9.57806Z"/>
</svg>
