<svg width="159" height="45" viewBox="0 0 159 45" fill="none" xmlns="http://www.w3.org/2000/svg">
<path d="M48.6332 14.0193C48.5613 13.8399 48.4867 13.6628 48.4096 13.4878C48.5257 13.4293 48.6395 13.3683 48.7534 13.3072C50.5747 12.3087 51.6429 11.0412 51.4536 9.98641C51.2681 8.9729 49.9161 8.21055 47.9782 7.92346C47.7873 7.89401 47.5935 7.87157 47.4041 7.85431C47.4123 7.72707 47.4184 7.59724 47.4219 7.46963C47.4724 5.40086 46.9119 3.84639 45.8979 3.49179C44.9262 3.15017 43.5812 3.94473 42.3556 5.47496C42.2341 5.6271 42.1174 5.77962 42.0024 5.93951C41.8149 5.81381 41.6243 5.6951 41.4399 5.58895C39.7842 4.61699 38.1821 4.27178 37.3963 4.93887C36.5845 5.62806 36.6674 7.3743 37.3936 9.2289C37.4535 9.37838 37.5134 9.52786 37.5808 9.6755C37.3917 9.76926 37.2096 9.86597 37.0244 9.96969C35.3495 10.9242 34.3849 12.1081 34.5682 13.119C34.7561 14.1617 36.1708 14.982 38.1498 15.2699C38.3075 15.2919 38.4677 15.3118 38.6331 15.3271C38.618 15.5359 38.6125 15.7454 38.6096 15.9527C38.5933 17.8721 39.1359 19.2949 40.1027 19.6361C41.1024 19.9896 42.5267 19.1723 43.7747 17.6052C43.8694 17.4847 43.9645 17.3595 44.06 17.2294C44.1537 17.2923 44.2479 17.3503 44.3421 17.4084C46.108 18.4783 47.8313 18.8764 48.6561 18.1762C49.4445 17.5069 49.343 15.8388 48.6332 14.0193ZM47.8667 8.64585C49.5279 8.89193 50.6214 9.50854 50.7321 10.118C50.8514 10.7692 49.9744 11.8032 48.4013 12.6667C48.2974 12.7237 48.1961 12.7785 48.0905 12.8282C47.7324 12.1438 47.3312 11.4825 46.8863 10.854C47.0843 10.1071 47.2352 9.34675 47.331 8.57971C47.5131 8.59881 47.6877 8.61974 47.8667 8.64585ZM39.7229 10.4081C39.6087 10.7322 39.4967 11.0588 39.3965 11.3887C39.0977 10.9479 38.8219 10.4919 38.5712 10.0234C39.0427 9.8191 39.5513 9.63217 40.0876 9.46188C39.9598 9.77519 39.8368 10.0889 39.7229 10.4081ZM42.1867 6.96741C42.5867 7.26902 42.9908 7.60716 43.3925 7.97406C43.06 8.02037 42.7245 8.07369 42.3929 8.13697C42.064 8.19804 41.7321 8.26612 41.4041 8.34416C41.6533 7.85215 41.9166 7.39262 42.1867 6.96741ZM40.9966 9.19776C41.5008 9.06356 42.0104 8.95151 42.5236 8.85421C43.0368 8.75692 43.5527 8.68397 44.0723 8.62578C44.4308 8.9893 44.7829 9.37161 45.126 9.77494C45.469 10.1783 45.7921 10.5897 46.0912 10.9992C45.9502 11.4973 45.7927 11.9917 45.6186 12.4823C45.4445 12.973 45.2516 13.4573 45.0446 13.9357C44.5382 14.0674 44.026 14.1816 43.508 14.2785C42.9948 14.3758 42.4811 14.4514 41.9611 14.5143C41.6048 14.1534 41.2509 13.7637 40.9056 13.3578C40.5604 12.9519 40.2391 12.5479 39.9392 12.1479C40.0784 11.6425 40.2363 11.1433 40.413 10.6504C40.5897 10.1576 40.7848 9.67581 40.9966 9.19776ZM43.6361 14.998C43.9772 14.9355 44.3143 14.863 44.6519 14.7857C44.4153 15.2714 44.156 15.7409 43.8709 16.2012C43.4389 15.8777 43.0234 15.5315 42.6291 15.1627C42.9664 15.1168 43.3024 15.0587 43.6361 14.998ZM45.9432 13.6805C46.0688 13.3646 46.1923 13.0461 46.3061 12.7268C46.4195 12.4124 46.5259 12.095 46.6253 11.7746C46.9273 12.2351 47.1957 12.6928 47.4265 13.138C46.9403 13.346 46.4469 13.5245 45.9432 13.6805ZM46.6031 8.52986C46.5374 9.05315 46.4428 9.57417 46.3225 10.0859C45.9105 9.55414 45.4729 9.03965 45.014 8.54761C45.5652 8.51603 46.0995 8.51209 46.6031 8.52986ZM45.647 4.17671C46.2715 4.39458 46.7275 5.66819 46.6863 7.45297C46.684 7.5662 46.6766 7.68385 46.6713 7.80408C45.8959 7.77223 45.1183 7.79571 44.3462 7.86788C43.7972 7.32775 43.2135 6.82593 42.5978 6.3602C42.7019 6.21394 42.813 6.07064 42.9241 5.92733C43.9767 4.61518 45.0628 3.96922 45.647 4.17671ZM38.2495 9.366C38.1884 9.23091 38.132 9.09619 38.0783 8.95926C37.7842 8.26057 37.5278 7.40075 37.5046 6.64126C37.4646 6.22551 37.5961 5.81114 37.8692 5.49474C38.3453 5.09051 39.6491 5.39061 41.0656 6.21834C41.243 6.32153 41.4174 6.43172 41.5892 6.54413C41.1741 7.19927 40.8002 7.88178 40.4732 8.58243C39.7182 8.79589 38.9737 9.05843 38.2495 9.366ZM38.2639 14.5453C37.5081 14.4523 36.7758 14.2235 36.105 13.8669C35.723 13.697 35.4285 13.3771 35.2949 12.983C35.1846 12.3687 35.958 11.4183 37.3918 10.6017C37.5617 10.5065 37.7338 10.4138 37.9077 10.3285C38.2754 11.0137 38.6866 11.6709 39.1459 12.3005C38.9497 13.0548 38.8028 13.8251 38.7065 14.5969C38.5555 14.5827 38.4071 14.5662 38.2639 14.5453ZM39.4349 14.642C39.4968 14.1353 39.5899 13.6021 39.7131 13.0568C39.9138 13.3138 40.1263 13.5742 40.3462 13.8327C40.5727 14.099 40.8001 14.3557 41.033 14.6032C40.5002 14.6459 39.9677 14.6572 39.4349 14.642ZM41.5287 18.6838C41.1914 18.93 40.7629 19.0267 40.3514 18.9486C39.7623 18.7408 39.3291 17.5992 39.3412 15.9594C39.3425 15.7713 39.3516 15.5765 39.3611 15.377C40.1373 15.3992 40.9131 15.3684 41.6838 15.2841C42.2368 15.8341 42.8293 16.3463 43.4568 16.8154C43.3721 16.9318 43.2852 17.0456 43.1988 17.1547C42.7445 17.7585 42.1767 18.2762 41.5287 18.6838ZM44.726 16.7798C44.641 16.7273 44.556 16.6747 44.4714 16.6174C44.8847 15.9549 45.2498 15.2621 45.5707 14.5489C46.3126 14.3464 47.0371 14.092 47.7461 13.7929C47.8214 13.9605 47.8897 14.1251 47.9537 14.2845C48.5622 15.8427 48.662 17.2139 48.1885 17.6159C47.6785 18.0489 46.2527 17.7054 44.726 16.7798ZM41.8241 12.5781C42.3805 13.2322 43.3647 13.3094 44.023 12.7505C44.6813 12.1916 44.7639 11.2088 44.2075 10.5547C43.6511 9.90058 42.6669 9.8234 42.0086 10.3823C41.3503 10.9411 41.2677 11.924 41.8241 12.5781Z" fill="#EE6151"/>
<path d="M46.2295 17.2356C47.4244 16.0413 46.5781 14 44.8884 14H19.9004C18.2107 14 17.3645 16.0413 18.5593 17.2356L30.5951 29.259V40.0645H27.4463C26.2042 40.0645 25.1971 41.0706 25.1971 42.3115C25.1971 42.5598 25.3984 42.7609 25.647 42.7609H39.1419C39.3904 42.7609 39.5917 42.5598 39.5917 42.3115C39.5917 41.0706 38.5846 40.0645 37.3425 40.0645H34.1937V29.259L46.2295 17.2356Z" fill="#E5E5E5"/>
<path d="M52.75 43H49.9258V29.1016C49.9258 28.1562 50.1016 27.3633 50.4531 26.7227C50.8125 26.0742 51.3242 25.5859 51.9883 25.2578C52.6523 24.9219 53.4375 24.7539 54.3438 24.7539C54.625 24.7539 54.9023 24.7734 55.1758 24.8125C55.4492 24.8438 55.7148 24.8945 55.9727 24.9648L55.9023 27.1445C55.7461 27.1055 55.5742 27.0781 55.3867 27.0625C55.207 27.0469 55.0117 27.0391 54.8008 27.0391C54.3711 27.0391 54 27.1211 53.6875 27.2852C53.3828 27.4414 53.1484 27.6719 52.9844 27.9766C52.8281 28.2812 52.75 28.6562 52.75 29.1016V43ZM55.3633 30.3203V32.3828H47.9805V30.3203H55.3633ZM56.875 36.8008V36.5312C56.875 35.6172 57.0078 34.7695 57.2734 33.9883C57.5391 33.1992 57.9219 32.5156 58.4219 31.9375C58.9297 31.3516 59.5469 30.8984 60.2734 30.5781C61.0078 30.25 61.8359 30.0859 62.7578 30.0859C63.6875 30.0859 64.5156 30.25 65.2422 30.5781C65.9766 30.8984 66.5977 31.3516 67.1055 31.9375C67.6133 32.5156 68 33.1992 68.2656 33.9883C68.5312 34.7695 68.6641 35.6172 68.6641 36.5312V36.8008C68.6641 37.7148 68.5312 38.5625 68.2656 39.3438C68 40.125 67.6133 40.8086 67.1055 41.3945C66.5977 41.9727 65.9805 42.4258 65.2539 42.7539C64.5273 43.0742 63.7031 43.2344 62.7812 43.2344C61.8516 43.2344 61.0195 43.0742 60.2852 42.7539C59.5586 42.4258 58.9414 41.9727 58.4336 41.3945C57.9258 40.8086 57.5391 40.125 57.2734 39.3438C57.0078 38.5625 56.875 37.7148 56.875 36.8008ZM59.6992 36.5312V36.8008C59.6992 37.3711 59.7578 37.9102 59.875 38.418C59.9922 38.9258 60.1758 39.3711 60.4258 39.7539C60.6758 40.1367 60.9961 40.4375 61.3867 40.6562C61.7773 40.875 62.2422 40.9844 62.7812 40.9844C63.3047 40.9844 63.7578 40.875 64.1406 40.6562C64.5312 40.4375 64.8516 40.1367 65.1016 39.7539C65.3516 39.3711 65.5352 38.9258 65.6523 38.418C65.7773 37.9102 65.8398 37.3711 65.8398 36.8008V36.5312C65.8398 35.9688 65.7773 35.4375 65.6523 34.9375C65.5352 34.4297 65.3477 33.9805 65.0898 33.5898C64.8398 33.1992 64.5195 32.8945 64.1289 32.6758C63.7461 32.4492 63.2891 32.3359 62.7578 32.3359C62.2266 32.3359 61.7656 32.4492 61.375 32.6758C60.9922 32.8945 60.6758 33.1992 60.4258 33.5898C60.1758 33.9805 59.9922 34.4297 59.875 34.9375C59.7578 35.4375 59.6992 35.9688 59.6992 36.5312ZM73.8672 32.7344V43H71.043V30.3203H73.7383L73.8672 32.7344ZM77.7461 30.2383L77.7227 32.8633C77.5508 32.832 77.3633 32.8086 77.1602 32.793C76.9648 32.7773 76.7695 32.7695 76.5742 32.7695C76.0898 32.7695 75.6641 32.8398 75.2969 32.9805C74.9297 33.1133 74.6211 33.3086 74.3711 33.5664C74.1289 33.8164 73.9414 34.1211 73.8086 34.4805C73.6758 34.8398 73.5977 35.2422 73.5742 35.6875L72.9297 35.7344C72.9297 34.9375 73.0078 34.1992 73.1641 33.5195C73.3203 32.8398 73.5547 32.2422 73.8672 31.7266C74.1875 31.2109 74.5859 30.8086 75.0625 30.5195C75.5469 30.2305 76.1055 30.0859 76.7383 30.0859C76.9102 30.0859 77.0938 30.1016 77.2891 30.1328C77.4922 30.1641 77.6445 30.1992 77.7461 30.2383ZM90.7305 43H87.0859L87.1094 40.668H90.7305C91.7852 40.668 92.668 40.4375 93.3789 39.9766C94.0977 39.5156 94.6367 38.8555 94.9961 37.9961C95.3633 37.1367 95.5469 36.1133 95.5469 34.9258V34C95.5469 33.0781 95.4414 32.2617 95.2305 31.5508C95.0273 30.8398 94.7227 30.2422 94.3164 29.7578C93.918 29.2734 93.4258 28.9062 92.8398 28.6562C92.2617 28.4062 91.5938 28.2812 90.8359 28.2812H87.0156V25.9375H90.8359C91.9688 25.9375 93.0039 26.1289 93.9414 26.5117C94.8789 26.8867 95.6875 27.4297 96.3672 28.1406C97.0547 28.8516 97.582 29.7031 97.9492 30.6953C98.3164 31.6875 98.5 32.7969 98.5 34.0234V34.9258C98.5 36.1523 98.3164 37.2617 97.9492 38.2539C97.582 39.2461 97.0547 40.0977 96.3672 40.8086C95.6797 41.5117 94.8594 42.0547 93.9062 42.4375C92.9609 42.8125 91.9023 43 90.7305 43ZM88.7148 25.9375V43H85.7734V25.9375H88.7148ZM106.762 43.2344C105.824 43.2344 104.977 43.082 104.219 42.7773C103.469 42.4648 102.828 42.0312 102.297 41.4766C101.773 40.9219 101.371 40.2695 101.09 39.5195C100.809 38.7695 100.668 37.9609 100.668 37.0938V36.625C100.668 35.6328 100.812 34.7344 101.102 33.9297C101.391 33.125 101.793 32.4375 102.309 31.8672C102.824 31.2891 103.434 30.8477 104.137 30.543C104.84 30.2383 105.602 30.0859 106.422 30.0859C107.328 30.0859 108.121 30.2383 108.801 30.543C109.48 30.8477 110.043 31.2773 110.488 31.832C110.941 32.3789 111.277 33.0312 111.496 33.7891C111.723 34.5469 111.836 35.3828 111.836 36.2969V37.5039H102.039V35.4766H109.047V35.2539C109.031 34.7461 108.93 34.2695 108.742 33.8242C108.562 33.3789 108.285 33.0195 107.91 32.7461C107.535 32.4727 107.035 32.3359 106.41 32.3359C105.941 32.3359 105.523 32.4375 105.156 32.6406C104.797 32.8359 104.496 33.1211 104.254 33.4961C104.012 33.8711 103.824 34.3242 103.691 34.8555C103.566 35.3789 103.504 35.9688 103.504 36.625V37.0938C103.504 37.6484 103.578 38.1641 103.727 38.6406C103.883 39.1094 104.109 39.5195 104.406 39.8711C104.703 40.2227 105.062 40.5 105.484 40.7031C105.906 40.8984 106.387 40.9961 106.926 40.9961C107.605 40.9961 108.211 40.8594 108.742 40.5859C109.273 40.3125 109.734 39.9258 110.125 39.4258L111.613 40.8672C111.34 41.2656 110.984 41.6484 110.547 42.0156C110.109 42.375 109.574 42.668 108.941 42.8945C108.316 43.1211 107.59 43.2344 106.762 43.2344ZM118 40.7617L121.105 30.3203H124.035L119.629 43H117.801L118 40.7617ZM115.621 30.3203L118.785 40.8086L118.938 43H117.109L112.68 30.3203H115.621ZM132.895 39.5664C132.895 39.2852 132.824 39.0312 132.684 38.8047C132.543 38.5703 132.273 38.3594 131.875 38.1719C131.484 37.9844 130.906 37.8125 130.141 37.6562C129.469 37.5078 128.852 37.332 128.289 37.1289C127.734 36.918 127.258 36.6641 126.859 36.3672C126.461 36.0703 126.152 35.7188 125.934 35.3125C125.715 34.9062 125.605 34.4375 125.605 33.9062C125.605 33.3906 125.719 32.9023 125.945 32.4414C126.172 31.9805 126.496 31.5742 126.918 31.2227C127.34 30.8711 127.852 30.5938 128.453 30.3906C129.062 30.1875 129.742 30.0859 130.492 30.0859C131.555 30.0859 132.465 30.2656 133.223 30.625C133.988 30.9766 134.574 31.457 134.98 32.0664C135.387 32.668 135.59 33.3477 135.59 34.1055H132.766C132.766 33.7695 132.68 33.457 132.508 33.168C132.344 32.8711 132.094 32.6328 131.758 32.4531C131.422 32.2656 131 32.1719 130.492 32.1719C130.008 32.1719 129.605 32.25 129.285 32.4062C128.973 32.5547 128.738 32.75 128.582 32.9922C128.434 33.2344 128.359 33.5 128.359 33.7891C128.359 34 128.398 34.1914 128.477 34.3633C128.562 34.5273 128.703 34.6797 128.898 34.8203C129.094 34.9531 129.359 35.0781 129.695 35.1953C130.039 35.3125 130.469 35.4258 130.984 35.5352C131.953 35.7383 132.785 36 133.48 36.3203C134.184 36.6328 134.723 37.0391 135.098 37.5391C135.473 38.0312 135.66 38.6562 135.66 39.4141C135.66 39.9766 135.539 40.4922 135.297 40.9609C135.062 41.4219 134.719 41.8242 134.266 42.168C133.812 42.5039 133.27 42.7656 132.637 42.9531C132.012 43.1406 131.309 43.2344 130.527 43.2344C129.379 43.2344 128.406 43.0312 127.609 42.625C126.812 42.2109 126.207 41.6836 125.793 41.043C125.387 40.3945 125.184 39.7227 125.184 39.0273H127.914C127.945 39.5508 128.09 39.9688 128.348 40.2812C128.613 40.5859 128.941 40.8086 129.332 40.9492C129.73 41.082 130.141 41.1484 130.562 41.1484C131.07 41.1484 131.496 41.082 131.84 40.9492C132.184 40.8086 132.445 40.6211 132.625 40.3867C132.805 40.1445 132.895 39.8711 132.895 39.5664ZM145.551 25.9375L138.906 44.4648H136.691L143.348 25.9375H145.551ZM155.418 35.7695L147.531 32.8281V30.0977L157.656 34.4453V36.2969L155.418 35.7695ZM147.531 38.3008L155.441 35.3008L157.656 34.832V36.6719L147.531 41.0312V38.3008Z" fill="#E5E5E5"/>
<path d="M5.75391 35.3008L13.5 38.2656V41.043L3.62109 36.6836V34.8438L5.75391 35.3008ZM13.5 32.875L5.75391 35.8867L3.62109 36.2969V34.457L13.5 30.1094V32.875Z" fill="#E5E5E5"/>
</svg>
